:version 1.10
:name ASF
:units
  mass 1
  length 1
  angle deg
:documentation
  ASF file generated by Kaydara
:root
  axis xyz
  order  tx ty tz rx ry rz
  position 0 0 0
  orientation 0 0 0
:bonedata
  begin
    id 1
    name RightUpLegDummy
    direction -1 2.30186e-007 8.31532e-007
    length 4.46685
    axis 0 0 0 xyz
  end
  begin
    id 2
    name RightUpLeg
    direction -2.30187e-007 -1 1.24343e-010
    length 16.4045
    axis -3.49089 -0.000906625 0.000286804 xyz
    dof rx ry rz
  end
  begin
    id 3
    name RightLeg
    direction -2.30181e-007 -1 -4.17157e-009
    length 17.5097
    axis 3.68512 0.0193738 -0.131023 xyz
    dof rx ry rz
  end
  begin
    id 4
    name RightFoot
    direction 8.31421e-007 -4.51202e-011 1
    length 6.49508
    axis 4.81691e-005 -0.120479 -0.188788 xyz
    dof rx ry rz
  end
  begin
    id 5
    name RightToes
    direction 0.00124746 -0.014064 0.9999
    length 3.85082
    axis 0.000481921 0.542163 -0.142578 xyz
    dof rx ry rz
  end
  begin
    id 6
    name SpineDummy
    direction 0.0717043 0.9409 -0.331007
    length 10.0032
    axis 0 0 0 xyz
  end
  begin
    id 7
    name Spine
    direction 2.30186e-007 1 4.58806e-011
    length 9.84055
    axis -0.001389 0.000121418 2.40972e-006 xyz
    dof rx ry rz
  end
  begin
    id 8
    name Spine1
    direction 0 0 0
    length 0
    axis -0.001389 0.000121451 1.30017e-006 xyz
    dof rx ry rz
  end
  begin
    id 9
    name HEadDummy
    direction -0.00347485 0.950688 -0.310128
    length 8.00997
    axis -0.001389 0.000121451 1.30017e-006 xyz
  end
  begin
    id 10
    name HEad
    direction -0.0222688 0.980941 0.193023
    length 5.12695
    axis -0.001389 0.000121451 1.30017e-006 xyz
    dof rx ry rz
  end
  begin
    id 11
    name LeftShoulder1Dummy
    direction 0.988871 0.146793 -0.0242004
    length 3.5792
    axis -0.001389 0.000121451 1.30017e-006 xyz
  end
  begin
    id 12
    name LeftShoulder1
    direction 0.993832 0.108932 0.020779
    length 4.16823
    axis -0.001389 0.000121451 1.30017e-006 xyz
    dof rx ry rz
  end
  begin
    id 13
    name LeftArm
    direction 1 3.44807e-006 -8.31404e-007
    length 9.91437
    axis -23.1894 0.134784 0.967509 xyz
    dof rx ry rz
  end
  begin
    id 14
    name LeftForeArm
    direction 1 3.44842e-006 -8.31581e-007
    length 9.08575
    axis -9.91835 -0.06569 -0.177793 xyz
    dof rx ry rz
  end
  begin
    id 15
    name LeftHand
    direction 0.992938 -0.0411636 0.11126
    length 5.32135
    axis -0.00960232 -0.00340091 0.185173 xyz
    dof rx ry rz
  end
  begin
    id 16
    name RightShoulderDummy
    direction -0.988871 0.146793 -0.0241962
    length 3.5792
    axis -0.001389 0.000121451 1.30017e-006 xyz
  end
  begin
    id 17
    name RightShoulder
    direction -0.993832 0.108933 0.0207785
    length 4.16823
    axis 0.215806 0.000203643 -0.0068026 xyz
    dof rx ry rz
  end
  begin
    id 18
    name RightArm
    direction -1 3.90912e-006 8.31284e-007
    length 9.91437
    axis -23.2009 -0.134239 -0.964101 xyz
    dof rx ry rz
  end
  begin
    id 19
    name RightForeArm
    direction -1 3.90882e-006 8.31502e-007
    length 9.08575
    axis -9.92322 0.0658061 0.178867 xyz
    dof rx ry rz
  end
  begin
    id 20
    name RightHand
    direction -0.992843 -0.0414603 0.112003
    length 5.28593
    axis -0.00960638 0.00330671 -0.185228 xyz
    dof rx ry rz
  end
  begin
    id 21
    name LeftUpLegDummy
    direction 1 -2.30186e-007 -8.31532e-007
    length 4.46685
    axis 0 0 0 xyz
  end
  begin
    id 22
    name LeftUpLeg
    direction -2.30187e-007 -1 6.00931e-010
    length 16.4045
    axis -3.48766 0.00143442 -0.000524262 xyz
    dof rx ry rz
  end
  begin
    id 23
    name LeftLeg
    direction -2.30187e-007 -1 1.6669e-009
    length 17.5097
    axis 3.68178 -0.00654042 -0.000285133 xyz
    dof rx ry rz
  end
  begin
    id 24
    name LeftFoot
    direction 8.31532e-007 -4.54478e-011 1
    length 6.49508
    axis 1.87233e-006 4.66016e-005 -8.6538e-006 xyz
    dof rx ry rz
  end
  begin
    id 25
    name LeftToes
    direction 0.00818058 -0.00485161 0.999955
    length 3.85048
    axis 1.06247e-005 4.65869e-005 -8.65513e-006 xyz
    dof rx ry rz
  end
:hierarchy
  begin
    root RightUpLegDummy SpineDummy LeftUpLegDummy
    RightUpLegDummy RightUpLeg
    RightUpLeg RightLeg
    RightLeg RightFoot
    RightFoot RightToes
    SpineDummy Spine
    Spine Spine1
    Spine1 HEadDummy LeftShoulder1Dummy RightShoulderDummy
    HEadDummy HEad
    LeftShoulder1Dummy LeftShoulder1
    LeftShoulder1 LeftArm
    LeftArm LeftForeArm
    LeftForeArm LeftHand
    RightShoulderDummy RightShoulder
    RightShoulder RightArm
    RightArm RightForeArm
    RightForeArm RightHand
    LeftUpLegDummy LeftUpLeg
    LeftUpLeg LeftLeg
    LeftLeg LeftFoot
    LeftFoot LeftToes
  end

:SAMPLES-PER-SECOND 30
:FULLY-SPECIFIED
:DEGREES
113
root  51.0523 29.6769 57.4193 27.743 -55.367 5.25236
RightUpLeg  -78.6335 -35.922 8.61074
RightLeg  46.7885 -13.1209 -12.0198
RightFoot  -18.0705 0.996148 6.63621
RightToes  -18.64 -0.0740079 -0.165799
Spine  22.5196 2.42456 -1.4994
Spine1  36.0553 5.60918 -2.30153
HEad  -0.0782785 -18.8501 27.0353
LeftShoulder1  0 -2.42657e-020 -4.95415e-022
LeftArm  -17.5953 -37.9184 -98.4057
LeftForeArm  176.445 -26.0617 -4.52993
LeftHand  13.398 -30.1293 -47.5299
RightShoulder  0 2.42657e-020 1.07489e-018
RightArm  -60.2639 49.8243 85.8658
RightForeArm  40.4241 8.92406 1.57656
RightHand  -1.4526 17.1097 -9.26751
LeftUpLeg  -67.7562 10.6892 -0.423341
LeftLeg  57.5882 -4.7951 -6.5506
LeftFoot  -9.86173 0.0208012 0.2411
LeftToes  -18.9019 1.18758e-006 1.19596e-007
114
root  50.6545 29.761 56.8729 28.2845 -57.6285 5.20707
RightUpLeg  -84.3042 -38.7575 17.629
RightLeg  47.2995 -14.3376 -13.2997
RightFoot  -16.3726 0.852969 6.30189
RightToes  -17.8998 -0.0700629 -0.159725
Spine  22.2764 1.24358 -1.85842
Spine1  35.6207 2.59093 -2.1318
HEad  0.179868 -18.6572 27.3001
LeftShoulder1  0 -2.42657e-020 -4.95415e-022
LeftArm  -21.7449 -38.5629 -96.8245
LeftForeArm  173.71 -26.0124 -4.52384
LeftHand  13.5284 -33.9327 -42.8662
RightShoulder  0 2.42657e-020 1.07489e-018
RightArm  -55.3235 46.5569 91.594
RightForeArm  32.5732 13.0957 2.34527
RightHand  -1.13899 19.2252 -6.3497
LeftUpLeg  -67.1015 13.4412 -0.145898
LeftLeg  56.4324 -5.32085 -6.9622
LeftFoot  -9.54371 0.00564664 0.0676334
LeftToes  -19.3636 1.18758e-006 1.19596e-007
115
root  50.2264 29.8201 56.3348 27.8754 -59.9887 5.98845
RightUpLeg  -88.6145 -40.1403 24.375
RightLeg  46.9805 -13.9103 -12.787
RightFoot  -11.8373 0.39817 4.21716
RightToes  -20.6855 -0.0853131 -0.182311
Spine  21.8312 0.12892 -2.23711
Spine1  35.1123 -0.0969564 -2.20334
HEad  -0.905887 -18.8639 28.5111
LeftShoulder1  0 -2.42657e-020 -4.95415e-022
LeftArm  -25.2739 -38.4594 -95.2726
LeftForeArm  171.982 -26.4033 -4.61158
LeftHand  12.6804 -35.324 -38.8497
RightShoulder  0 2.42657e-020 1.07489e-018
RightArm  -52.5616 43.2669 95.564
RightForeArm  30.257 16.5701 3.0016
RightHand  -1.21795 20.3268 -6.41827
LeftUpLeg  -65.9938 15.88 -0.0488142
LeftLeg  54.7385 -5.71054 -7.02783
LeftFoot  -8.45182 -0.0183246 -0.248007
LeftToes  -22.7084 1.18758e-006 1.19596e-007
116
root  49.7134 29.8815 55.762 27.3618 -62.8184 6.55427
RightUpLeg  -89.2142 -38.6796 26.2446
RightLeg  46.7062 -13.6906 -12.4793
RightFoot  -7.75703 0.142311 2.47663
RightToes  -21.3178 -0.0889258 -0.187332
Spine  21.1569 -0.608259 -2.52978
Spine1  34.2673 -2.10617 -2.03064
HEad  -2.24881 -19.8409 29.8655
LeftShoulder1  0 -2.42657e-020 -4.95415e-022
LeftArm  -26.1137 -37.5055 -93.5145
LeftForeArm  172.063 -27.4619 -4.8436
LeftHand  11.1408 -36.7946 -33.0604
RightShoulder  0 2.42657e-020 1.07489e-018
RightArm  -49.4531 39.1309 97.5783
RightForeArm  29.8088 20.3903 3.7513
RightHand  -1.83844 20.1615 -9.94713
LeftUpLeg  -64.3079 19.4259 -0.17492
LeftLeg  53.0882 -6.47632 -7.5067
LeftFoot  -7.84951 -0.0278503 -0.405946
LeftToes  -24.7675 1.18758e-006 1.19596e-007
117
root  49.1518 29.9753 55.1527 26.5358 -65.5969 7.1294
RightUpLeg  -87.964 -36.3822 25.8357
RightLeg  46.4954 -13.227 -11.9918
RightFoot  -3.8388 0.0148598 0.821109
RightToes  -22.6052 -0.096453 -0.197432
Spine  20.571 -1.21006 -2.50059
Spine1  33.5853 -3.88771 -1.26491
HEad  -3.64537 -20.7835 30.7844
LeftShoulder1  0 -2.42657e-020 -4.95415e-022
LeftArm  -22.7359 -36.2542 -91.8158
LeftForeArm  172.48 -29.6353 -5.33401
LeftHand  9.04325 -37.5255 -26.5837
RightShoulder  0 2.42657e-020 1.07489e-018
RightArm  -48.5922 35.5975 97.7708
RightForeArm  27.3819 23.7815 4.45079
RightHand  -1.98503 20.4277 -10.6176
LeftUpLeg  -61.7761 21.7602 0.674177
LeftLeg  50.9054 -6.19472 -6.65971
LeftFoot  -6.8927 -0.0512426 -0.850878
LeftToes  -26.7808 1.18758e-006 1.19596e-007
118
root  48.5254 30.1023 54.5586 24.9963 -67.9376 7.99787
RightUpLeg  -86.3682 -34.7759 25.2491
RightLeg  46.8009 -12.5297 -11.5085
RightFoot  -1.36599 -0.00700311 -0.210011
RightToes  -22.9768 -0.0986675 -0.200315
Spine  20.1783 -1.72548 -2.14126
Spine1  33.3391 -4.87801 -1.19566
HEad  -4.59829 -20.2127 30.7029
LeftShoulder1  0 -2.42657e-020 -4.95415e-022
LeftArm  -23.7081 -34.3697 -90.8774
LeftForeArm  159.428 -32.2708 -5.98998
LeftHand  8.60217 -40.1498 -23.6314
RightShoulder  0 2.42657e-020 1.07489e-018
RightArm  -48.1052 33.3329 96.7992
RightForeArm  25.3305 25.7295 4.86971
RightHand  -1.67757 20.9905 -8.66998
LeftUpLeg  -58.444 23.7318 1.84267
LeftLeg  48.4931 -6.05043 -5.98477
LeftFoot  -5.6089 -0.0577464 -1.1788
LeftToes  -28.2875 1.18758e-006 1.19596e-007
119
root  47.8025 30.2363 53.8747 24.5834 -70.2692 7.357
RightUpLeg  -83.9078 -33.0602 25.0224
RightLeg  46.9571 -11.7988 -10.924
RightFoot  -0.306134 -0.00289338 -0.707076
RightToes  -21.4591 -0.0897409 -0.188449
Spine  19.722 -1.95251 -1.42856
Spine1  32.8731 -5.38317 -0.495458
HEad  -4.64536 -19.8854 30.3081
LeftShoulder1  0 -2.42657e-020 -4.95415e-022
LeftArm  -23.8695 -31.6074 -91.4571
LeftForeArm  162.754 -36.7657 -7.14042
LeftHand  8.28904 -39.857 -22.978
RightShoulder  0 2.42657e-020 1.07489e-018
RightArm  -47.8455 31.4014 94.8507
RightForeArm  24.8334 26.9459 5.13819
RightHand  -1.45803 21.3934 -7.33974
LeftUpLeg  -54.5394 26.6014 3.73885
LeftLeg  45.9101 -6.73229 -6.08005
LeftFoot  -3.8499 -0.0498346 -1.48268
LeftToes  -30.538 1.18758e-006 1.19596e-007
120
root  47.0795 30.3473 53.196 23.7288 -72.8799 7.13684
RightUpLeg  -80.7471 -30.7506 23.716
RightLeg  46.9472 -11.5918 -10.7366
RightFoot  0.835134 0.0110402 -1.13626
RightToes  -19.7923 -0.0803042 -0.175151
Spine  19.2992 -2.04436 -0.896577
Spine1  32.4229 -5.44189 -0.35826
HEad  -3.90999 -19.2795 29.7076
LeftShoulder1  0 -2.42657e-020 -4.95415e-022
LeftArm  -24.4289 -29.2393 -91.4116
LeftForeArm  161.176 -41.4992 -8.52633
LeftHand  7.94246 -39.9356 -22.0074
RightShoulder  0 2.42657e-020 1.07489e-018
RightArm  -48.6053 30.0906 93.4332
RightForeArm  25.7189 26.9626 5.14169
RightHand  -1.64234 21.0212 -8.46772
LeftUpLeg  -50.5156 29.1973 5.74983
LeftLeg  43.6596 -6.97754 -5.82171
LeftFoot  -1.70975 -0.027986 -1.87539
LeftToes  -32.4768 1.18758e-006 1.19596e-007
121
root  46.3838 30.4565 52.602 20.7891 -75.6196 9.22406
RightUpLeg  -78.3003 -28.6885 22.4671
RightLeg  47.2684 -11.1401 -10.4489
RightFoot  -0.153747 -0.00170195 -0.894969
RightToes  -16.2153 -0.0613807 -0.145718
Spine  18.9165 -2.14853 -0.522363
Spine1  31.9955 -5.43661 -0.559696
HEad  -3.14043 -18.7504 28.9896
LeftShoulder1  0 -2.42657e-020 -4.95415e-022
LeftArm  -24.6306 -27.1908 -90.9118
LeftForeArm  162.116 -46.8624 -10.3638
LeftHand  7.63925 -38.8858 -21.7934
RightShoulder  0 2.42657e-020 1.07489e-018
RightArm  -50.3949 29.4356 92.2697
RightForeArm  26.8436 26.1715 4.96608
RightHand  -1.72853 20.8997 -8.98467
LeftUpLeg  -46.8484 31.5194 6.846
LeftLeg  41.769 -6.42991 -5.02155
LeftFoot  0.897949 0.0180519 -2.30335
LeftToes  -34.0568 1.18758e-006 1.19596e-007
122
root  45.6737 30.5596 52.0917 15.4247 -78.955 13.5525
RightUpLeg  -75.5095 -26.3575 20.6965
RightLeg  47.791 -10.6074 -10.1478
RightFoot  -2.11216 -0.0136183 -0.361314
RightToes  -14.7413 -0.0541237 -0.133255
Spine  18.7653 -2.06527 -0.304597
Spine1  31.8479 -5.09344 -0.912452
HEad  -2.42708 -18.3117 28.1403
LeftShoulder1  0 -2.42657e-020 -4.95415e-022
LeftArm  -26.6686 -27.075 -90.5696
LeftForeArm  167.458 -50.9572 -12.0257
LeftHand  6.89691 -39.7376 -19.3065
RightShoulder  0 2.42657e-020 1.07489e-018
RightArm  -51.3845 29.2068 90.8736
RightForeArm  26.7942 25.5286 4.82548
RightHand  -1.74753 19.9581 -9.54095
LeftUpLeg  -43.0413 34.3074 7.71787
LeftLeg  40.6016 -5.41974 -4.06472
LeftFoot  3.91728 0.0919763 -2.68904
LeftToes  -35.9799 1.18758e-006 1.19596e-007
123
root  44.9694 30.6654 51.5942 6.22888 -82.6518 21.781
RightUpLeg  -72.4703 -23.6133 19.0126
RightLeg  47.7049 -10.0897 -9.64089
RightFoot  -3.66664 -0.0110516 0.0322825
RightToes  -13.531 -0.0484067 -0.122887
Spine  18.6816 -1.90801 -0.0970865
Spine1  31.7476 -4.64127 -1.21727
HEad  -1.15739 -18.2205 27.1546
LeftShoulder1  0 -2.42657e-020 -4.95415e-022
LeftArm  -28.0543 -28.1372 -89.3539
LeftForeArm  169.902 -54.1613 -13.5607
LeftHand  7.41445 -38.6246 -21.3239
RightShoulder  0 2.42657e-020 1.07489e-018
RightArm  -51.7451 29.5592 89.4365
RightForeArm  27.5403 24.538 4.61155
RightHand  -1.82713 19.9954 -9.97046
LeftUpLeg  -39.2124 35.9893 9.24218
LeftLeg  40.172 -3.2319 -2.39332
LeftFoot  7.33259 0.178439 -2.78425
LeftToes  -37.8801 1.18758e-006 1.19596e-007
124
root  44.2418 30.7932 51.0957 -18.0753 -86.5041 45.0535
RightUpLeg  -69.1533 -21.0653 18.2527
RightLeg  46.9246 -9.1248 -8.51353
RightFoot  -5.07965 -0.00490657 0.266971
RightToes  -13.5657 -0.0474146 -0.123185
Spine  18.74 -1.5928 0.0770539
Spine1  31.7657 -4.12153 -1.05942
HEad  0.143509 -18.4147 26.7399
LeftShoulder1  0 -2.42657e-020 -4.95415e-022
LeftArm  -28.8378 -30.0942 -86.965
LeftForeArm  172.097 -56.9964 -15.1423
LeftHand  7.94938 -37.9905 -23.1968
RightShoulder  0 2.42657e-020 1.07489e-018
RightArm  -51.707 29.8183 88.1001
RightForeArm  27.5881 24.3556 4.57257
RightHand  -1.71659 19.9421 -9.37426
LeftUpLeg  -35.1582 36.9781 11.4129
LeftLeg  40.6006 -0.486051 -0.370622
LeftFoot  10.1605 0.218315 -2.45538
LeftToes  -35.3003 1.18758e-006 1.19596e-007
125
root  43.6029 30.9813 50.6739 -96.9042 -86.8294 123.489
RightUpLeg  -66.534 -18.6945 17.3652
RightLeg  45.8294 -8.10057 -7.29762
RightFoot  -6.11895 -0.000106237 0.375604
RightToes  -13.4321 -0.0486551 -0.122033
Spine  18.5952 -1.47135 0.0602194
Spine1  31.4326 -3.7523 -1.56269
HEad  1.11384 -18.1033 26.7939
LeftShoulder1  0 -2.42657e-020 -4.95415e-022
LeftArm  -30.8065 -32.3152 -83.5274
LeftForeArm  178.398 -60.3761 -17.3819
LeftHand  8.32518 -37.8131 -24.3664
RightShoulder  0 2.42657e-020 1.07489e-018
RightArm  -51.19 30.093 87.744
RightForeArm  28.0628 24.3496 4.57109
RightHand  -1.63808 20.3043 -8.76187
LeftUpLeg  -31.9645 32.6708 13.1819
LeftLeg  41.9661 3.42637 2.69516
LeftFoot  12.4154 0.148155 -1.36203
LeftToes  -30.7755 1.18758e-006 1.19596e-007
126
root  42.9623 31.157 50.3182 -127.955 -83.1558 154.105
RightUpLeg  -63.8346 -16.2363 16.0485
RightLeg  44.651 -7.05759 -6.11809
RightFoot  -6.91296 0.000537858 0.386493
RightToes  -14.1596 -0.0513485 -0.128287
Spine  18.5021 -1.43112 -0.133355
Spine1  31.1504 -3.5672 -2.20606
HEad  1.74033 -17.8904 27.2878
LeftShoulder1  0 -2.42657e-020 -4.95415e-022
LeftArm  -32.8744 -34.7842 -79.5225
LeftForeArm  -175.32 -62.8185 -19.33
LeftHand  9.01965 -37.0894 -26.8363
RightShoulder  0 2.42657e-020 1.07489e-018
RightArm  -49.7131 30.1415 88.0564
RightForeArm  28.587 24.9453 4.69848
RightHand  -1.72982 20.5438 -9.15672
LeftUpLeg  -30.2514 27.9895 13.0713
LeftLeg  45.1284 3.28868 2.89373
LeftFoot  9.78336 0.118663 -1.38645
LeftToes  -27.7731 1.18758e-006 1.19596e-007
127
root  42.2921 31.3343 49.9208 -139.816 -78.8803 165.641
RightUpLeg  -60.8604 -13.3274 15.1639
RightLeg  43.1897 -6.13808 -5.06458
RightFoot  -7.61005 -0.00193929 0.348422
RightToes  -15.2697 -0.0566882 -0.137744
Spine  18.5615 -1.22783 -0.186935
Spine1  31.1173 -3.12481 -2.40846
HEad  1.80674 -17.4227 27.7857
LeftShoulder1  0 -2.42657e-020 -4.95415e-022
LeftArm  -34.0817 -37.5815 -76.2495
LeftForeArm  -167.622 -64.3167 -20.6963
LeftHand  9.93964 -34.7436 -31.443
RightShoulder  0 2.42657e-020 1.07489e-018
RightArm  -48.4613 30.595 88.3608
RightForeArm  28.5694 25.8177 4.88778
RightHand  -1.69371 20.7537 -8.86268
LeftUpLeg  -29.6458 24.1919 12.2753
LeftLeg  48.8266 2.68034 2.68381
LeftFoot  5.51947 0.0749978 -1.55576
LeftToes  -24.8516 1.18758e-006 1.19596e-007
